<?xml version="1.0" standalone="no"?>
<!DOCTYPE svg PUBLIC "-//W3C//DTD SVG 20010904//EN"
 "http://www.w3.org/TR/2001/REC-SVG-20010904/DTD/svg10.dtd">
<svg version="1.0" xmlns="http://www.w3.org/2000/svg"
 width="1280.000000pt" height="1024.000000pt" viewBox="0 0 1280.000000 1024.000000"
 preserveAspectRatio="xMidYMid meet">
<metadata>
Created by potrace 1.15, written by Peter Selinger 2001-2017
</metadata>
<g transform="translate(0.000000,1024.000000) scale(0.100000,-0.100000)"
fill="#000000" stroke="none">
<path d="M6125 9158 c-20 -51 -144 -311 -275 -578 -335 -682 -346 -714 -337
-925 7 -146 20 -206 71 -322 52 -117 65 -179 77 -356 8 -117 8 -201 0 -320
-10 -144 -51 -483 -67 -561 l-6 -29 45 37 c46 38 178 179 253 271 126 153 247
375 284 520 15 55 21 112 21 182 1 89 -3 111 -31 190 -123 337 -147 452 -157
733 -6 190 6 379 38 610 21 152 76 433 109 560 10 41 18 76 16 77 -2 2 -20
-38 -41 -89z"/>
<path d="M7350 8255 c0 -2 -56 -225 -124 -494 -134 -526 -171 -650 -243 -806
-59 -128 -69 -169 -84 -329 -9 -101 -9 -152 0 -220 22 -162 93 -350 205 -539
57 -98 204 -302 212 -295 2 3 -7 101 -21 219 -39 339 -58 578 -52 654 7 99 31
162 120 312 42 72 88 161 102 196 33 88 48 248 40 417 -17 364 -104 890 -146
890 -5 0 -9 -2 -9 -5z"/>
<path d="M6497 7278 c-19 -35 -54 -101 -77 -148 -157 -314 -413 -725 -827
-1327 -478 -695 -604 -894 -733 -1158 -74 -152 -132 -306 -160 -422 l-12 -53
-126 87 c-178 121 -442 320 -607 457 -207 172 -333 266 -395 295 -80 38 -183
36 -260 -3 -129 -67 -377 -299 -449 -419 -105 -177 -119 -356 -39 -478 25 -37
30 -40 388 -263 371 -231 1995 -1294 1988 -1302 -9 -9 -2735 -974 -2791 -988
-292 -72 -544 -283 -618 -516 -28 -89 -28 -231 0 -320 89 -283 402 -499 796
-551 110 -14 323 -7 423 15 112 24 218 63 311 112 86 45 2877 1257 2896 1257
17 0 2764 -1192 2870 -1245 203 -103 328 -136 545 -144 367 -14 690 109 886
338 98 115 144 235 144 379 0 301 -243 561 -625 670 -74 21 -2096 736 -2104
744 -2 2 28 24 65 48 38 24 303 198 589 387 966 638 1336 877 1625 1050 85 51
170 108 188 128 38 42 72 142 72 211 0 105 -53 239 -138 352 -95 125 -290 296
-407 357 -42 22 -63 27 -130 27 -70 0 -87 -4 -141 -32 -66 -34 -172 -114 -379
-287 -213 -177 -445 -346 -902 -659 -237 -162 -436 -298 -441 -301 -5 -3 -1
25 9 64 48 183 46 383 -5 575 -62 231 -155 413 -490 959 -239 388 -309 512
-441 771 -232 459 -347 791 -416 1205 -16 96 -29 178 -29 183 0 23 -23 -1 -53
-55z"/>
</g>
</svg>
