<?xml version="1.0" encoding="iso-8859-1"?>
<!-- Generator: Adobe Illustrator 19.0.0, SVG Export Plug-In . SVG Version: 6.00 Build 0)  -->
<svg version="1.1" id="Capa_1" xmlns="http://www.w3.org/2000/svg" xmlns:xlink="http://www.w3.org/1999/xlink" x="0px" y="0px"
	 viewBox="0 0 512 512" style="enable-background:new 0 0 512 512;" xml:space="preserve">
<g>
	<g>
		<path d="M468.003,299.026c-1.803-4.315-4.064-8.388-6.712-12.175c12.444-8.014,20.709-21.98,20.709-37.85
			c0-24.813-20.187-45-45-45s-45,20.187-45,45c0,4.026,0.539,7.927,1.536,11.643c-20.618,4.706-37.536,19.228-45.539,38.383
			c-20.576,0.454-37.789,14.774-42.632,33.975h-19.337l-7.616-11.423C291.751,308.035,300,289.468,300,269.001v-21.895
			c0-41.355-33.645-75-75-75h-61.058l-88.178-55.107H0v227.002h66.034c-0.678-4.57-1.034-9.244-1.034-14c0-52.383,42.617-95,95-95
			s95,42.617,95,95c0,2.262-0.099,4.5-0.257,6.723L254,338.001l15.972,25h38.249c7.177,15.342,22.753,26,40.779,26
			c9.93,0,19.114-3.239,26.564-8.708c9.554,5.526,20.627,8.708,32.436,8.708c11.809,0,22.882-3.181,32.436-8.708
			c7.451,5.468,16.635,8.708,26.564,8.708c24.813,0,45-20.187,45-45C512,319.524,492.353,299.563,468.003,299.026z"/>
	</g>
</g>
<g>
	<g>
		<path d="M160,265.001c-35.841,0-65,29.159-65,65s29.159,65,65,65s65-29.159,65-65S195.841,265.001,160,265.001z"/>
	</g>
</g>
<g>
</g>
<g>
</g>
<g>
</g>
<g>
</g>
<g>
</g>
<g>
</g>
<g>
</g>
<g>
</g>
<g>
</g>
<g>
</g>
<g>
</g>
<g>
</g>
<g>
</g>
<g>
</g>
<g>
</g>
</svg>
