<svg id="Capa_1" enable-background="new 0 0 512 512" height="512" viewBox="0 0 512 512" width="512" xmlns="http://www.w3.org/2000/svg"><g><path d="m299.96 415.461c20.888 0 39.132-13.86 45.189-33.278 2.379.258 4.771.388 7.16.388 34.993 0 63.786-27.054 66.562-61.345 3.402.422 6.828.635 10.249.635 11.834 0 23.25-2.44 33.931-7.252 3.776-1.701 5.458-6.142 3.757-9.919-1.701-3.776-6.143-5.459-9.919-3.757-8.73 3.933-18.073 5.928-27.769 5.928-5.334 0-10.684-.631-15.899-1.875-2.301-.548-4.721.018-6.537 1.53-1.816 1.511-2.814 3.791-2.693 6.15.052 1.006.1 2.082.1 3.125 0 28.551-23.229 51.78-51.78 51.78-3.781 0-7.572-.42-11.27-1.248-2.047-.459-4.19-.04-5.913 1.155s-2.867 3.056-3.155 5.133c-2.203 15.877-15.965 27.851-32.012 27.851-17.821 0-32.32-14.499-32.32-32.32 0-16.046 11.97-29.808 27.842-32.011 2.073-.288 3.933-1.429 5.127-3.148 1.195-1.719 1.617-3.859 1.164-5.903-.824-3.719-1.242-7.516-1.242-11.287 0-28.552 23.229-51.78 51.779-51.78.984 0 1.984.032 3.057.097 2.378.148 4.67-.844 6.197-2.663s2.104-4.254 1.552-6.564c-1.244-5.215-1.875-10.564-1.875-15.899 0-37.429 30.451-67.88 67.88-67.88s67.878 30.448 67.878 67.877c0 17.255-6.479 33.695-18.241 46.292-2.827 3.027-2.665 7.773.362 10.6 3.03 2.828 7.774 2.665 10.601-.363 14.366-15.385 22.278-35.46 22.278-56.529 0-45.7-37.18-82.88-82.88-82.88s-82.88 37.18-82.88 82.88c0 3.421.213 6.846.635 10.249-34.291 2.774-61.345 31.568-61.345 66.561 0 2.385.13 4.777.387 7.159-19.416 6.056-33.277 24.302-33.277 45.191 0 26.092 21.227 47.32 47.32 47.32z"/><path d="m81.692 332.592c-22.957 0-41.633 18.677-41.633 41.633s18.677 41.633 41.633 41.633 41.633-18.677 41.633-41.633-18.677-41.633-41.633-41.633zm0 68.267c-14.686 0-26.633-11.948-26.633-26.633s11.948-26.633 26.633-26.633 26.633 11.948 26.633 26.633-11.948 26.633-26.633 26.633z"/><path d="m15 78.581h45.95c17.661 0 32.744 13.204 35.086 30.712l2.13 15.95c.503 3.769 3.724 6.508 7.425 6.508.331 0 .665-.022 1.002-.067 4.105-.548 6.99-4.321 6.441-8.427l-2.13-15.952c-3.334-24.926-24.809-43.724-49.954-43.724h-45.95c-4.142 0-7.5 3.358-7.5 7.5s3.358 7.5 7.5 7.5z"/><path d="m177.19 288.908v-18.622c0-11.104-9.033-20.137-20.136-20.137-11.104 0-20.137 9.033-20.137 20.137v18.622c0 11.104 9.033 20.137 20.137 20.137 11.103 0 20.136-9.033 20.136-20.137zm-25.273 0v-18.622c0-2.833 2.304-5.137 5.137-5.137 2.832 0 5.136 2.304 5.136 5.137v18.622c0 2.833-2.304 5.137-5.136 5.137-2.833 0-5.137-2.304-5.137-5.137z"/><path d="m504.5 433.419h-378.138c9.929-7.512 17.904-17.464 23.054-28.951 6.146 3.589 13.153 5.511 20.494 5.511h70.91c4.142 0 7.5-3.358 7.5-7.5v-33.25c0-4.142-3.358-7.5-7.5-7.5h-20.947c2.588-4.442 4.078-9.599 4.078-15.1 0-8.039-3.131-15.598-8.816-21.283-3.872-3.873-8.615-6.557-13.786-7.877v-31.754c0-44.347-34.363-80.794-77.856-84.178l-6.489-48.54c-.549-4.105-4.319-6.987-8.428-6.44-4.106.549-6.989 4.322-6.44 8.428l6.185 46.27h-15.135l-12.021-89.976c-1.344-10.09-10.035-17.699-20.214-17.699h-45.953c-4.142 0-7.5 3.358-7.5 7.5s3.358 7.5 7.5 7.5h45.952c2.692 0 4.99 2.012 5.346 4.683l11.756 87.992h-63.054c-4.142 0-7.5 3.358-7.5 7.5s3.358 7.5 7.5 7.5h101.89c38.301 0 69.461 31.16 69.461 69.461v30.814h-58.081c-12.744-10.308-28.947-16.499-46.576-16.499-40.911 0-74.194 33.283-74.194 74.194 0 24.151 11.604 45.637 29.524 59.194h-29.522c-4.142 0-7.5 3.358-7.5 7.5s3.358 7.5 7.5 7.5h497c4.143 0 7.5-3.358 7.5-7.5s-3.357-7.5-7.5-7.5zm-271.18-38.44h-63.41c-5.754 0-11.19-1.857-15.656-5.292.894-4.2 1.421-8.531 1.569-12.958h38.028 39.469zm-24.369-48.349c0 8.326-6.774 15.1-15.1 15.1h-39.038c-1.891-11.097-6.251-21.356-12.499-30.2h51.537c4.033 0 7.824 1.571 10.677 4.423s4.423 6.644 4.423 10.677zm-186.453 27.595c0-32.64 26.555-59.194 59.194-59.194s59.194 26.555 59.194 59.194-26.555 59.194-59.194 59.194-59.194-26.554-59.194-59.194z"/></g></svg>