<?xml version="1.0"?>
<svg xmlns="http://www.w3.org/2000/svg" viewBox="0 0 512 512" width="512" height="512"><g id="Out_line" data-name="Out line"><path d="M16.98926,431.56689l-1.97852,15.877A72.92061,72.92061,0,0,0,24,448a71.84253,71.84253,0,0,0,41.2373-12.96582c.03907-.02734.07813-.05518.11622-.083L67.293,433.5415c.042-.02978.083-.06054.12305-.0913a72.74092,72.74092,0,0,0,11.68457-11.08838A72.087,72.087,0,0,0,96,376c0-1.76953-.06152-3.49756-.18066-5.11572A71.91833,71.91833,0,0,0,92.96,355.252c-.0166-.05517-.03418-.11035-.05176-.165l-.92968-2.85986c-.02051-.06152-.041-.12256-.0625-.1831a72.04534,72.04534,0,0,0-50.59375-45.93946,72.69941,72.69941,0,0,0-26.31641-1.54541l1.98828,15.876a56.68993,56.68993,0,0,1,12.46655-.15845,103.665,103.665,0,0,0-.76733,39.82984,7.99134,7.99134,0,0,0,8.98828,6.52587,103.69036,103.69036,0,0,0,37.63745-13.04748c.53,1.21313,1.03272,2.43787,1.47388,3.68469l.87109,2.67871c.396,1.32117.72388,2.66822,1.02051,4.02564A103.75971,103.75971,0,0,0,40.582,375.5376a8.00061,8.00061,0,0,0-3.4375,10.56006A103.52871,103.52871,0,0,0,61.169,417.86792c-1.08594.96558-2.1941,1.90332-3.34668,2.77759l-1.81641,1.32031c-1.186.828-2.41626,1.59192-3.665,2.32544A103.76081,103.76081,0,0,0,29.55566,391.624L18.44434,403.13574a87.69981,87.69981,0,0,1,19.08178,27.22144A56.02827,56.02827,0,0,1,24,432,56.87,56.87,0,0,1,16.98926,431.56689ZM45.01465,324.06958a55.51912,55.51912,0,0,1,21.87182,15.90527,87.781,87.781,0,0,1-23.47436,9.31372A87.869,87.869,0,0,1,45.01465,324.06958Zm10.39551,62.13257a87.89575,87.89575,0,0,1,24.43774-6.25977,56.109,56.109,0,0,1-8.33789,25.703A87.734,87.734,0,0,1,55.41016,386.20215Z"/><path d="M272,408a8.00008,8.00008,0,0,0,8-8V352a7.99869,7.99869,0,0,0-7.25146-7.96216A125.69634,125.69634,0,0,0,296,270.86279V166.07666A54.13814,54.13814,0,0,0,241.92285,112a37.94849,37.94849,0,0,1-25.68652-9.96924L125.44824,17.5835,114.55176,29.29932,203.46216,112H16v16H241.92285a38.13342,38.13342,0,0,1,37.58643,32H192a8.00016,8.00016,0,0,0-7.80957,9.73535A109.75639,109.75639,0,0,0,280,255.22784v15.635c0,.37989-.01.75806-.01392,1.13721H134.74219A151.595,151.595,0,0,0,24,224H16v16h8c74.99023,0,136,61.00928,136,136a138.09607,138.09607,0,0,1-.85449,15.22571A149.16248,149.16248,0,0,1,144,392h-1.06934A120.56189,120.56189,0,0,0,144,376,120.13623,120.13623,0,0,0,24,256a8.00008,8.00008,0,0,0-8,8v24H32V272.30469a103.39014,103.39014,0,0,1,19.94971,3.51391l-5.36963,14.7522,15.03515,5.47266,5.36426-14.73731a104.04736,104.04736,0,0,1,17.51758,10.15113L74.4375,303.4458,86.69336,313.73l10.05469-11.98267a104.81014,104.81014,0,0,1,13.01684,15.49878L96.21,325.07178l8,13.85644L117.79,331.08813a103.2089,103.2089,0,0,1,6.94189,19.02662l-15.45752,2.72558,2.77735,15.75684,15.459-2.72583Q127.99633,370.87122,128,376q0,5.12512-.48926,10.12866l-15.459-2.72583-2.77735,15.75684,15.45752,2.72558A103.2089,103.2089,0,0,1,117.79,420.91187L104.21,413.07178l-8,13.85644,13.55493,7.82569a104.81014,104.81014,0,0,1-13.01684,15.49878L86.69336,438.27,74.4375,448.5542l10.05957,11.98852a104.04736,104.04736,0,0,1-17.51758,10.15113l-5.36426-14.73731L46.58008,461.4292l5.36963,14.7522A103.39014,103.39014,0,0,1,32,479.69531V464H16v24a8.00008,8.00008,0,0,0,8,8,120.21173,120.21173,0,0,0,115.66064-88h1.0254l21.65673,21.65674A8.00076,8.00076,0,0,0,168,432h72a8.00008,8.00008,0,0,0,8-8V408Zm-8-48v32H248V376a7.96075,7.96075,0,0,0-1.376-4.4856,165.50194,165.50194,0,0,0,12.28809-11.11254c.13257-.13257.26025-.2688.39209-.40186Zm16-184v16H209.64844a93.88222,93.88222,0,0,1-7.125-16Zm-59.01172,32H280v31.11938A93.77145,93.77145,0,0,1,220.98828,208Zm-73.11816,80H278.68237a109.79688,109.79688,0,0,1-31.08471,61.08838,145.51479,145.51479,0,0,1-72.12183,39.53418c.345-4.195.52417-8.41309.52417-12.62256A151.16924,151.16924,0,0,0,147.87012,288ZM232,416H171.31348l-9.0232-9.02344A160.822,160.822,0,0,0,229.09155,384H232Z"/><path d="M296,360h16a8.00008,8.00008,0,0,0,8-8,24.02718,24.02718,0,0,1,24-24,8.00008,8.00008,0,0,0,8-8v-8a64.07239,64.07239,0,0,1,64-64V232a80.09041,80.09041,0,0,0-80,80v.80371A40.12649,40.12649,0,0,0,304.80371,344H296Z"/><path d="M480,280v16a40.04552,40.04552,0,0,1-40,40,8.00008,8.00008,0,0,0-8,8,48.054,48.054,0,0,1-48,48v16a64.0925,64.0925,0,0,0,63.56445-56.50879A56.08683,56.08683,0,0,0,496,296V280Z"/><path d="M312,448a16.01833,16.01833,0,0,1-16-16,8.00008,8.00008,0,0,0-8-8H264v16h17.0127A32.00193,32.00193,0,0,0,344,432H328A16.01833,16.01833,0,0,1,312,448Z"/><path d="M336,392v16a40.04552,40.04552,0,0,0,40-40H360A24.02718,24.02718,0,0,1,336,392Z"/><path d="M416,280V264a48.054,48.054,0,0,0-48,48h16A32.03635,32.03635,0,0,1,416,280Z"/><path d="M368,448h-8v16h8a40.04552,40.04552,0,0,0,40-40H392A24.02718,24.02718,0,0,1,368,448Z"/><path d="M424,416v16a64.07239,64.07239,0,0,0,64-64H472A48.054,48.054,0,0,1,424,416Z"/><rect x="432" y="264" width="16" height="16"/><rect x="360" y="336" width="16" height="16"/><rect x="416" y="304" width="16" height="16"/></g></svg>
