<?xml version="1.0" ?><svg width="64px" height="64px" viewBox="0 0 64 64" data-name="Layer 1" id="Layer_1" xmlns="http://www.w3.org/2000/svg"><defs><style>.cls-1{fill:#f4ecce;}.cls-2{fill:#ba9bc9;}.cls-3{fill:#838bc5;}.cls-4{fill:#8f6c56;}</style></defs><rect class="cls-1" height="4" width="6" x="24" y="24"/><rect class="cls-2" height="14" width="17" x="6" y="44"/><polygon class="cls-3" points="31 42 31 43 30 28 24 28 22 58 31 58 32 58 59 58 59 42 31 42"/><polyline class="cls-4" points="42 38 43 28 47 28 48 38"/><polyline class="cls-4" points="51 38 52 28 56 28 57 38"/><polyline class="cls-4" points="33 38 34 28 38 28 39 38"/><path class="cls-2" d="M29,22V16.22a3,3,0,0,0,1-1.8A3.94,3.94,0,0,0,32,15a4,4,0,0,0,3.58-2.24,3,3,0,0,0,4.78.07,5,5,0,0,0,8.52,1.29,6,6,0,1,0,0-6.24,5,5,0,0,0-8.52,1.29,3,3,0,0,0-4.78.07A4,4,0,0,0,28,11c0,.06,0,.13,0,.19A2.89,2.89,0,0,0,27,11a3,3,0,0,0-2,5.22V22Z"/><rect class="cls-2" height="6" rx="3" width="30" x="30" y="38"/><rect class="cls-4" height="2" width="60" x="2" y="57"/><polyline class="cls-4" points="8 44 9 34 13 34 14 44"/><rect class="cls-1" height="6" width="4" x="35" y="48"/><rect class="cls-1" height="6" width="4" x="51" y="48"/><rect class="cls-1" height="6" width="4" x="43" y="48"/><rect class="cls-1" height="2" width="2" x="9" y="47"/><rect class="cls-1" height="2" width="2" x="13" y="47"/><rect class="cls-1" height="2" width="2" x="17" y="47"/><rect class="cls-1" height="2" width="2" x="9" y="51"/><rect class="cls-1" height="2" width="2" x="13" y="51"/><rect class="cls-1" height="2" width="2" x="17" y="51"/></svg>