<?xml version="1.0" encoding="iso-8859-1"?>
<!-- Generator: Adobe Illustrator 19.0.0, SVG Export Plug-In . SVG Version: 6.00 Build 0)  -->
<svg version="1.1" id="Layer_1" xmlns="http://www.w3.org/2000/svg" xmlns:xlink="http://www.w3.org/1999/xlink" x="0px" y="0px"
	 viewBox="0 0 512 512" style="enable-background:new 0 0 512 512;" xml:space="preserve">
<g>
	<g>
		<path  fill="#4caf50"
			d="M431.821,237.714c-3.618-35.048-17.525-67.083-38.632-93.043l56.761-56.761l-25.86-25.86l-56.761,56.761
			c-25.961-21.108-57.996-35.013-93.044-38.633V0h-36.571v80.179c-35.048,3.618-67.083,17.525-93.043,38.632L87.91,62.051
			l-25.86,25.86l56.761,56.761c-21.108,25.96-35.013,57.995-38.633,93.043H0v36.571h80.179
			c3.618,35.048,17.525,67.083,38.632,93.043L62.05,424.09l25.86,25.86l56.761-56.761c25.96,21.107,57.996,35.013,93.043,38.632V512
			h36.571v-80.179c35.048-3.618,67.083-17.525,93.043-38.632l56.761,56.761l25.86-25.86l-56.761-56.761
			c21.107-25.96,35.013-57.996,38.632-93.043H512v-0.001v-36.571H431.821z M170.667,225.524c0-10.099,8.187-18.286,18.286-18.286
			s18.286,8.187,18.286,18.286s-8.187,18.286-18.286,18.286S170.667,235.622,170.667,225.524z M256,335.238
			c-31.605,0-57.589-24.055-60.648-54.857h121.295C313.589,311.183,287.605,335.238,256,335.238z M323.048,243.81
			c-10.099,0-18.286-8.187-18.286-18.286s8.187-18.286,18.286-18.286c10.099,0,18.286,8.187,18.286,18.286
			S333.146,243.81,323.048,243.81z"/>
	</g>
</g>
<g>
</g>
<g>
</g>
<g>
</g>
<g>
</g>
<g>
</g>
<g>
</g>
<g>
</g>
<g>
</g>
<g>
</g>
<g>
</g>
<g>
</g>
<g>
</g>
<g>
</g>
<g>
</g>
<g>
</g>
</svg>
